<svg width="119" height="224" viewBox="0 0 119 224" fill="none" xmlns="http://www.w3.org/2000/svg">
<rect x="0.5" y="4.5" width="15" height="15" rx="1.5" fill="white"/>
<rect x="0.5" y="4.5" width="15" height="15" rx="1.5" stroke="#DCDCDC"/>
<path d="M35.232 12.96V11.92H30.544V7.6H36.144V6.544H29.392V18H30.544V12.96H35.232ZM42.7951 10.256V14.368C42.7951 16.208 41.9151 17.2 40.4271 17.2C39.1951 17.2 38.3791 16.544 38.3791 14.704V10.24H37.2591V15.056C37.2591 16.944 38.2511 18.192 40.0751 18.192C41.2911 18.192 42.3631 17.584 42.7951 16.688L42.9391 18H43.8991V10.256H42.7951ZM50.2469 10.16C49.9749 10.096 49.7669 10.08 49.5269 10.08C48.4389 10.08 47.6229 10.624 47.3189 11.456L47.2389 10.256H46.1989V18H47.3029V13.584C47.3029 12.112 48.2149 11.152 49.6389 11.152H50.2469V10.16ZM52.8185 18V13.952C52.8185 12.208 53.7145 11.056 55.2985 11.056C56.5785 11.056 57.3945 11.696 57.3945 13.504V18H58.4985V13.264C58.4985 11.312 57.6185 10.048 55.4905 10.048C54.3705 10.048 53.3465 10.608 52.8345 11.6L52.6745 10.256H51.7145V18H52.8185ZM61.2429 8.128C61.6909 8.128 62.0749 7.76 62.0749 7.312C62.0749 6.864 61.6909 6.48 61.2429 6.48C60.7949 6.48 60.4269 6.864 60.4269 7.312C60.4269 7.76 60.7949 8.128 61.2429 8.128ZM60.6989 18H61.8029V10.256H60.6989V18ZM65.8811 18V11.184H67.4331V10.256H65.8811V7.808H64.7931V10.256H63.2411V11.184H64.7931V18H65.8811ZM74.3108 10.256V14.368C74.3108 16.208 73.4308 17.2 71.9427 17.2C70.7108 17.2 69.8948 16.544 69.8948 14.704V10.24H68.7747V15.056C68.7747 16.944 69.7668 18.192 71.5908 18.192C72.8068 18.192 73.8788 17.584 74.3108 16.688L74.4548 18H75.4148V10.256H74.3108ZM81.7625 10.16C81.4905 10.096 81.2825 10.08 81.0425 10.08C79.9545 10.08 79.1385 10.624 78.8345 11.456L78.7545 10.256H77.7145V18H78.8185V13.584C78.8185 12.112 79.7305 11.152 81.1545 11.152H81.7625V10.16ZM86.1813 18.192C88.0053 18.192 89.2053 17.312 89.6213 15.68H88.5653C88.2773 16.704 87.4613 17.248 86.1973 17.248C84.5333 17.248 83.5413 16.16 83.4613 14.272H89.6213V13.728C89.6213 11.536 88.1973 10.048 86.1013 10.048C83.8932 10.048 82.3893 11.712 82.3893 14.128C82.3893 16.56 83.9093 18.192 86.1813 18.192ZM86.1013 10.992C87.5573 10.992 88.5173 11.984 88.5173 13.472H83.4933C83.6853 11.952 84.6453 10.992 86.1013 10.992Z" fill="white"/>
<g clip-path="url(#clip0_125_5250)">
<rect y="44" width="16" height="16" rx="2" fill="#EBE8F4"/>
<rect width="16" height="16" transform="translate(0 44)" fill="white" style="mix-blend-mode:multiply"/>
<path d="M6.5 56L2 51.5L2.707 50.793L6.5 54.5855L13.293 47.793L14 48.5L6.5 56Z" fill="#2A254B"/>
</g>
<rect x="0.5" y="44.5" width="15" height="15" rx="1.5" stroke="#EBE8F4"/>
<path d="M30.544 58V52.72H36.736V58H37.872V46.544H36.736V51.648H30.544V46.544H29.392V58H30.544ZM39.8893 54.128C39.8893 56.48 41.5533 58.192 43.8253 58.192C46.0973 58.192 47.7613 56.48 47.7613 54.128C47.7613 51.76 46.0973 50.048 43.8253 50.048C41.5533 50.048 39.8893 51.76 39.8893 54.128ZM41.0093 54.112C41.0093 52.32 42.1613 51.04 43.8253 51.04C45.4733 51.04 46.6413 52.32 46.6413 54.112C46.6413 55.936 45.4733 57.2 43.8253 57.2C42.1613 57.2 41.0093 55.936 41.0093 54.112ZM50.631 58V53.2C50.631 52.016 51.415 51.056 52.711 51.056C53.879 51.056 54.631 51.824 54.631 53.136V58H55.719V53.216C55.719 52.016 56.487 51.04 57.783 51.04C58.967 51.04 59.703 51.824 59.703 53.152V58H60.775V52.928C60.775 51.136 59.671 50.048 57.991 50.048C56.743 50.048 55.799 50.688 55.447 51.696C55.079 50.688 54.167 50.048 52.951 50.048C51.863 50.048 50.999 50.544 50.615 51.36L50.487 50.256H49.527V58H50.631ZM66.2438 58.192C68.0678 58.192 69.2678 57.312 69.6838 55.68H68.6278C68.3398 56.704 67.5238 57.248 66.2598 57.248C64.5958 57.248 63.6038 56.16 63.5238 54.272H69.6838V53.728C69.6838 51.536 68.2598 50.048 66.1638 50.048C63.9557 50.048 62.4518 51.712 62.4518 54.128C62.4518 56.56 63.9718 58.192 66.2438 58.192ZM66.1638 50.992C67.6198 50.992 68.5798 51.984 68.5798 53.472H63.5558C63.7478 51.952 64.7078 50.992 66.1638 50.992ZM72.8778 58H73.9818L75.5818 53.136C75.7898 52.496 75.9178 52.032 76.0298 51.616C76.1258 52.08 76.2538 52.56 76.4458 53.136L78.0458 58H79.1178L81.7418 50.256H80.5898L79.0538 54.928C78.7818 55.76 78.7498 55.952 78.5898 56.592C78.4458 56.016 78.2538 55.344 78.1098 54.928L76.5898 50.256H75.4538L73.9178 54.928C73.8378 55.184 73.5818 55.968 73.4538 56.592C73.2938 55.968 73.1498 55.44 72.9738 54.928L71.4538 50.256H70.3178L72.8778 58ZM85.001 58.192C86.313 58.192 87.369 57.616 87.849 56.64L87.993 58H88.921V52.992C88.921 50.944 87.609 50.048 85.817 50.048C83.913 50.048 82.633 51.056 82.633 52.624H83.641C83.641 51.584 84.441 50.976 85.785 50.976C86.921 50.976 87.833 51.456 87.833 52.976V53.232L85.273 53.44C83.465 53.584 82.377 54.48 82.377 55.904C82.377 57.264 83.353 58.192 85.001 58.192ZM85.257 57.296C84.201 57.296 83.497 56.816 83.497 55.872C83.497 55.008 84.089 54.368 85.545 54.24L87.833 54.064V54.48C87.833 56.16 86.889 57.296 85.257 57.296ZM95.1844 50.16C94.9124 50.096 94.7044 50.08 94.4644 50.08C93.3764 50.08 92.5604 50.624 92.2564 51.456L92.1764 50.256H91.1364V58H92.2404V53.584C92.2404 52.112 93.1524 51.152 94.5764 51.152H95.1844V50.16ZM99.6031 58.192C101.427 58.192 102.627 57.312 103.043 55.68H101.987C101.699 56.704 100.883 57.248 99.6191 57.248C97.9551 57.248 96.9631 56.16 96.8831 54.272H103.043V53.728C103.043 51.536 101.619 50.048 99.5231 50.048C97.3151 50.048 95.8111 51.712 95.8111 54.128C95.8111 56.56 97.3311 58.192 99.6031 58.192ZM99.5231 50.992C100.979 50.992 101.939 51.984 101.939 53.472H96.9151C97.1071 51.952 98.0671 50.992 99.5231 50.992Z" fill="white"/>
<rect x="0.5" y="84.5" width="15" height="15" rx="1.5" fill="white"/>
<rect x="0.5" y="84.5" width="15" height="15" rx="1.5" stroke="#DCDCDC"/>
<path d="M32.544 98H33.744L38.096 86.544H36.912L33.872 94.496C33.696 94.928 33.408 95.728 33.168 96.56C32.912 95.76 32.688 95.136 32.448 94.512L29.392 86.544H28.16L32.544 98ZM40.4385 98.192C41.7505 98.192 42.8065 97.616 43.2865 96.64L43.4305 98H44.3585V92.992C44.3585 90.944 43.0465 90.048 41.2545 90.048C39.3505 90.048 38.0705 91.056 38.0705 92.624H39.0785C39.0785 91.584 39.8785 90.976 41.2225 90.976C42.3585 90.976 43.2705 91.456 43.2705 92.976V93.232L40.7105 93.44C38.9025 93.584 37.8145 94.48 37.8145 95.904C37.8145 97.264 38.7905 98.192 40.4385 98.192ZM40.6945 97.296C39.6385 97.296 38.9345 96.816 38.9345 95.872C38.9345 95.008 39.5265 94.368 40.9825 94.24L43.2705 94.064V94.48C43.2705 96.16 42.3265 97.296 40.6945 97.296ZM45.9179 95.824C45.9179 97.264 47.0059 98.192 48.7499 98.192C50.5099 98.192 51.6939 97.28 51.6939 95.888C51.6939 94.768 51.0859 94.144 49.7419 93.808L48.4139 93.472C47.5659 93.264 47.1499 92.848 47.1499 92.256C47.1499 91.424 47.7579 90.96 48.8459 90.96C49.8859 90.96 50.5099 91.488 50.5419 92.384H51.6139C51.5659 90.944 50.5099 90.048 48.8779 90.048C47.2139 90.048 46.0779 90.912 46.0779 92.272C46.0779 93.328 46.7339 94.032 48.0779 94.368L49.4059 94.704C50.3179 94.928 50.6379 95.296 50.6379 95.936C50.6379 96.768 49.9339 97.28 48.7339 97.28C47.6459 97.28 46.9739 96.72 46.9739 95.824H45.9179ZM56.7594 98.192C58.5834 98.192 59.7834 97.312 60.1994 95.68H59.1434C58.8554 96.704 58.0394 97.248 56.7754 97.248C55.1114 97.248 54.1194 96.16 54.0394 94.272H60.1994V93.728C60.1994 91.536 58.7754 90.048 56.6794 90.048C54.4714 90.048 52.9674 91.712 52.9674 94.128C52.9674 96.56 54.4874 98.192 56.7594 98.192ZM56.6794 90.992C58.1354 90.992 59.0954 91.984 59.0954 93.472H54.0714C54.2634 91.952 55.2234 90.992 56.6794 90.992ZM61.3085 95.824C61.3085 97.264 62.3965 98.192 64.1405 98.192C65.9005 98.192 67.0845 97.28 67.0845 95.888C67.0845 94.768 66.4765 94.144 65.1325 93.808L63.8045 93.472C62.9565 93.264 62.5405 92.848 62.5405 92.256C62.5405 91.424 63.1485 90.96 64.2365 90.96C65.2765 90.96 65.9005 91.488 65.9325 92.384H67.0045C66.9565 90.944 65.9005 90.048 64.2685 90.048C62.6045 90.048 61.4685 90.912 61.4685 92.272C61.4685 93.328 62.1245 94.032 63.4685 94.368L64.7965 94.704C65.7085 94.928 66.0285 95.296 66.0285 95.936C66.0285 96.768 65.3245 97.28 64.1245 97.28C63.0365 97.28 62.3645 96.72 62.3645 95.824H61.3085Z" fill="white"/>
<rect x="0.5" y="124.5" width="15" height="15" rx="1.5" fill="white"/>
<rect x="0.5" y="124.5" width="15" height="15" rx="1.5" stroke="#DCDCDC"/>
<path d="M33.76 133.792C35.952 133.792 37.36 132.224 37.36 130.144C37.36 127.984 35.968 126.544 33.76 126.544H29.392V138H30.544V133.792H33.76ZM33.6 127.584C35.184 127.584 36.16 128.544 36.16 130.128C36.16 131.696 35.2 132.752 33.536 132.752H30.544V127.584H33.6ZM43.0281 130.16C42.7561 130.096 42.5481 130.08 42.3081 130.08C41.2201 130.08 40.4041 130.624 40.1001 131.456L40.0201 130.256H38.9801V138H40.0841V133.584C40.0841 132.112 40.9961 131.152 42.4201 131.152H43.0281V130.16ZM43.6549 134.128C43.6549 136.48 45.3189 138.192 47.5909 138.192C49.8629 138.192 51.5269 136.48 51.5269 134.128C51.5269 131.76 49.8629 130.048 47.5909 130.048C45.3189 130.048 43.6549 131.76 43.6549 134.128ZM44.7749 134.112C44.7749 132.32 45.9269 131.04 47.5909 131.04C49.2389 131.04 50.4069 132.32 50.4069 134.112C50.4069 135.936 49.2389 137.2 47.5909 137.2C45.9269 137.2 44.7749 135.936 44.7749 134.112ZM56.3326 138.192C57.6286 138.192 58.7166 137.616 59.2606 136.416L59.3726 138H60.3326V126.336H59.2286V131.728C58.6846 130.608 57.6606 130.048 56.3806 130.048C54.0766 130.048 52.7486 131.808 52.7486 134.144C52.7486 136.464 54.0766 138.192 56.3326 138.192ZM56.5246 137.184C54.8446 137.184 53.8686 135.904 53.8686 134.112C53.8686 132.336 54.8446 131.04 56.5246 131.04C58.2206 131.04 59.2126 132.336 59.2126 134.112C59.2126 135.904 58.2206 137.184 56.5246 137.184ZM68.0764 130.256V134.368C68.0764 136.208 67.1964 137.2 65.7084 137.2C64.4764 137.2 63.6604 136.544 63.6604 134.704V130.24H62.5404V135.056C62.5404 136.944 63.5324 138.192 65.3564 138.192C66.5724 138.192 67.6444 137.584 68.0764 136.688L68.2204 138H69.1804V130.256H68.0764ZM70.7799 134.144C70.7799 136.576 72.2679 138.192 74.4599 138.192C76.2199 138.192 77.5959 137.152 77.9639 135.568H76.8439C76.5399 136.56 75.6119 137.2 74.4599 137.2C72.8919 137.2 71.8679 135.968 71.8679 134.128C71.8679 132.224 72.9719 131.024 74.5399 131.024C75.6119 131.024 76.5399 131.616 76.8279 132.688H77.9319C77.6279 131.088 76.3159 130.048 74.5239 130.048C72.2679 130.048 70.7799 131.712 70.7799 134.144ZM81.4124 138V131.184H82.9644V130.256H81.4124V127.808H80.3244V130.256H78.7724V131.184H80.3244V138H81.4124ZM83.746 135.824C83.746 137.264 84.834 138.192 86.578 138.192C88.338 138.192 89.522 137.28 89.522 135.888C89.522 134.768 88.914 134.144 87.57 133.808L86.242 133.472C85.394 133.264 84.978 132.848 84.978 132.256C84.978 131.424 85.586 130.96 86.674 130.96C87.714 130.96 88.338 131.488 88.37 132.384H89.442C89.394 130.944 88.338 130.048 86.706 130.048C85.042 130.048 83.906 130.912 83.906 132.272C83.906 133.328 84.562 134.032 85.906 134.368L87.234 134.704C88.146 134.928 88.466 135.296 88.466 135.936C88.466 136.768 87.762 137.28 86.562 137.28C85.474 137.28 84.802 136.72 84.802 135.824H83.746Z" fill="white"/>
<rect x="0.5" y="164.5" width="15" height="15" rx="1.5" fill="white"/>
<rect x="0.5" y="164.5" width="15" height="15" rx="1.5" stroke="#DCDCDC"/>
<path d="M34.064 178.176C36.528 178.176 38.528 176.72 39.056 174.56H37.824C37.328 176.096 35.888 177.072 34.08 177.072C31.568 177.072 29.888 175.152 29.888 172.272C29.888 169.376 31.568 167.456 34.08 167.456C35.872 167.456 37.28 168.464 37.76 170.112H38.992C38.528 167.84 36.592 166.352 34.128 166.352C30.896 166.352 28.688 168.752 28.688 172.272C28.688 175.792 30.864 178.176 34.064 178.176ZM40.2643 174.128C40.2643 176.48 41.9283 178.192 44.2003 178.192C46.4723 178.192 48.1363 176.48 48.1363 174.128C48.1363 171.76 46.4723 170.048 44.2003 170.048C41.9283 170.048 40.2643 171.76 40.2643 174.128ZM41.3843 174.112C41.3843 172.32 42.5363 171.04 44.2003 171.04C45.8483 171.04 47.0163 172.32 47.0163 174.112C47.0163 175.936 45.8483 177.2 44.2003 177.2C42.5363 177.2 41.3843 175.936 41.3843 174.112ZM51.006 178V173.2C51.006 172.016 51.79 171.056 53.086 171.056C54.254 171.056 55.006 171.824 55.006 173.136V178H56.094V173.216C56.094 172.016 56.862 171.04 58.158 171.04C59.342 171.04 60.078 171.824 60.078 173.152V178H61.15V172.928C61.15 171.136 60.046 170.048 58.366 170.048C57.118 170.048 56.174 170.688 55.822 171.696C55.454 170.688 54.542 170.048 53.326 170.048C52.238 170.048 51.374 170.544 50.99 171.36L50.862 170.256H49.902V178H51.006ZM63.3708 181.376H64.4748V176.512C65.0188 177.632 66.0588 178.192 67.3708 178.192C69.6588 178.192 70.9548 176.432 70.9548 174.096C70.9548 171.76 69.6108 170.048 67.3708 170.048C66.0748 170.048 64.9868 170.624 64.4428 171.824L64.3307 170.256H63.3708V181.376ZM64.4908 174.128C64.4908 172.336 65.4828 171.056 67.1788 171.056C68.8588 171.056 69.8348 172.336 69.8348 174.128C69.8348 175.904 68.8588 177.2 67.1788 177.2C65.4828 177.2 64.4908 175.904 64.4908 174.128ZM72.1705 174.128C72.1705 176.48 73.8345 178.192 76.1065 178.192C78.3785 178.192 80.0425 176.48 80.0425 174.128C80.0425 171.76 78.3785 170.048 76.1065 170.048C73.8345 170.048 72.1705 171.76 72.1705 174.128ZM73.2905 174.112C73.2905 172.32 74.4425 171.04 76.1065 171.04C77.7545 171.04 78.9225 172.32 78.9225 174.112C78.9225 175.936 77.7545 177.2 76.1065 177.2C74.4425 177.2 73.2905 175.936 73.2905 174.112ZM82.9123 178V173.952C82.9123 172.208 83.8083 171.056 85.3923 171.056C86.6723 171.056 87.4883 171.696 87.4883 173.504V178H88.5923V173.264C88.5923 171.312 87.7123 170.048 85.5843 170.048C84.4643 170.048 83.4403 170.608 82.9283 171.6L82.7682 170.256H81.8083V178H82.9123ZM94.0406 178.192C95.8646 178.192 97.0646 177.312 97.4806 175.68H96.4246C96.1366 176.704 95.3206 177.248 94.0566 177.248C92.3926 177.248 91.4006 176.16 91.3206 174.272H97.4806V173.728C97.4806 171.536 96.0566 170.048 93.9606 170.048C91.7526 170.048 90.2486 171.712 90.2486 174.128C90.2486 176.56 91.7686 178.192 94.0406 178.192ZM93.9606 170.992C95.4166 170.992 96.3766 171.984 96.3766 173.472H91.3526C91.5446 171.952 92.5046 170.992 93.9606 170.992ZM100.35 178V173.952C100.35 172.208 101.246 171.056 102.83 171.056C104.11 171.056 104.926 171.696 104.926 173.504V178H106.03V173.264C106.03 171.312 105.15 170.048 103.022 170.048C101.902 170.048 100.878 170.608 100.366 171.6L100.206 170.256H99.2458V178H100.35ZM110.006 178V171.184H111.558V170.256H110.006V167.808H108.918V170.256H107.366V171.184H108.918V178H110.006ZM112.34 175.824C112.34 177.264 113.428 178.192 115.172 178.192C116.932 178.192 118.116 177.28 118.116 175.888C118.116 174.768 117.508 174.144 116.164 173.808L114.836 173.472C113.988 173.264 113.572 172.848 113.572 172.256C113.572 171.424 114.18 170.96 115.268 170.96C116.308 170.96 116.932 171.488 116.964 172.384H118.036C117.988 170.944 116.932 170.048 115.3 170.048C113.636 170.048 112.5 170.912 112.5 172.272C112.5 173.328 113.156 174.032 114.5 174.368L115.828 174.704C116.74 174.928 117.06 175.296 117.06 175.936C117.06 176.768 116.356 177.28 115.156 177.28C114.068 177.28 113.396 176.72 113.396 175.824H112.34Z" fill="white"/>
<rect x="0.5" y="204.5" width="15" height="15" rx="1.5" fill="white"/>
<rect x="0.5" y="204.5" width="15" height="15" rx="1.5" stroke="#DCDCDC"/>
<path d="M28.704 209.52C28.704 211.088 29.648 212.112 31.44 212.544L33.376 213.024C34.608 213.312 35.184 213.984 35.184 215.008C35.184 216.32 34.112 217.136 32.432 217.136C30.864 217.136 29.808 216.352 29.744 215.152H28.56C28.704 217.024 30.208 218.192 32.432 218.192C34.8 218.192 36.336 216.928 36.336 214.944C36.336 213.392 35.408 212.368 33.616 211.936L31.648 211.456C30.448 211.152 29.856 210.512 29.856 209.504C29.856 208.208 30.912 207.376 32.528 207.376C33.968 207.376 34.848 208.112 34.976 209.408H36.144C35.968 207.488 34.608 206.336 32.544 206.336C30.24 206.336 28.704 207.6 28.704 209.52ZM39.9436 218V211.184H41.4956V210.256H39.9436V207.808H38.8556V210.256H37.3036V211.184H38.8556V218H39.9436ZM42.1493 221.376C42.5013 221.456 42.8533 221.488 43.3173 221.488C44.4213 221.488 45.1733 220.992 45.6213 219.776L49.1733 210.256H48.0373L45.5893 217.008L43.0933 210.256H41.9253L45.0613 218.464L44.7253 219.376C44.3413 220.416 43.6693 220.464 42.9973 220.464H42.1493V221.376ZM51.6165 218V206.336H50.5125V218H51.6165ZM57.2125 218.192C59.0365 218.192 60.2365 217.312 60.6525 215.68H59.5965C59.3085 216.704 58.4925 217.248 57.2285 217.248C55.5645 217.248 54.5725 216.16 54.4925 214.272H60.6525V213.728C60.6525 211.536 59.2285 210.048 57.1325 210.048C54.9245 210.048 53.4205 211.712 53.4205 214.128C53.4205 216.56 54.9405 218.192 57.2125 218.192ZM57.1325 210.992C58.5885 210.992 59.5485 211.984 59.5485 213.472H54.5245C54.7165 211.952 55.6765 210.992 57.1325 210.992ZM61.8896 213.904C61.8896 216.016 63.2336 217.76 65.4416 217.76C66.7696 217.76 67.8416 217.12 68.3696 216.032V217.872C68.3696 219.488 67.3136 220.56 65.7296 220.56C64.3376 220.56 63.3776 219.824 63.1376 218.576H62.0336C62.3376 220.448 63.7296 221.568 65.7136 221.568C67.9856 221.568 69.4576 220.064 69.4576 217.76V210.256H68.4976L68.3856 211.808C67.8896 210.672 66.8656 210.048 65.5216 210.048C63.2496 210.048 61.8896 211.792 61.8896 213.904ZM62.9936 213.888C62.9936 212.32 63.9536 211.024 65.6176 211.024C67.3136 211.024 68.2736 212.24 68.2736 213.888C68.2736 215.552 67.2816 216.768 65.6016 216.768C63.9696 216.768 62.9936 215.472 62.9936 213.888ZM77.2014 210.256V214.368C77.2014 216.208 76.3214 217.2 74.8334 217.2C73.6014 217.2 72.7854 216.544 72.7854 214.704V210.24H71.6654V215.056C71.6654 216.944 72.6574 218.192 74.4814 218.192C75.6974 218.192 76.7694 217.584 77.2014 216.688L77.3454 218H78.3054V210.256H77.2014ZM81.1491 208.128C81.5971 208.128 81.9811 207.76 81.9811 207.312C81.9811 206.864 81.5971 206.48 81.1491 206.48C80.7011 206.48 80.3331 206.864 80.3331 207.312C80.3331 207.76 80.7011 208.128 81.1491 208.128ZM80.6051 218H81.7091V210.256H80.6051V218ZM87.0514 218.192C88.3474 218.192 89.4354 217.616 89.9794 216.416L90.0914 218H91.0514V206.336H89.9474V211.728C89.4034 210.608 88.3794 210.048 87.0994 210.048C84.7954 210.048 83.4674 211.808 83.4674 214.144C83.4674 216.464 84.7954 218.192 87.0514 218.192ZM87.2434 217.184C85.5634 217.184 84.5874 215.904 84.5874 214.112C84.5874 212.336 85.5634 211.04 87.2434 211.04C88.9394 211.04 89.9314 212.336 89.9314 214.112C89.9314 215.904 88.9394 217.184 87.2434 217.184ZM96.6031 218.192C98.4271 218.192 99.6271 217.312 100.043 215.68H98.9871C98.6991 216.704 97.8831 217.248 96.6191 217.248C94.9551 217.248 93.9631 216.16 93.8831 214.272H100.043V213.728C100.043 211.536 98.6191 210.048 96.5231 210.048C94.3151 210.048 92.8111 211.712 92.8111 214.128C92.8111 216.56 94.3311 218.192 96.6031 218.192ZM96.5231 210.992C97.9791 210.992 98.9391 211.984 98.9391 213.472H93.9151C94.1071 211.952 95.0671 210.992 96.5231 210.992Z" fill="white"/>
<defs>
<clipPath id="clip0_125_5250">
<rect y="44" width="16" height="16" rx="2" fill="white"/>
</clipPath>
</defs>
</svg>
